Land_normalized_pl15_filtered_grf
version=1
nRows=15
nColumns=37
inDegrees=yes
endheader
time		1_ground_force_vx		1_ground_force_vy		1_ground_force_vz		1_ground_force_px		1_ground_force_py		1_ground_force_pz		1_ground_torque_x		1_ground_torque_y		1_ground_torque_z		2_ground_force_vx		2_ground_force_vy		2_ground_force_vz		2_ground_force_px		2_ground_force_py		2_ground_force_pz		2_ground_torque_x		2_ground_torque_y		2_ground_torque_z		3_ground_force_vx		3_ground_force_vy		3_ground_force_vz		3_ground_force_px		3_ground_force_py		3_ground_force_pz		3_ground_torque_x		3_ground_torque_y		3_ground_torque_z		4_ground_force_vx		4_ground_force_vy		4_ground_force_vz		4_ground_force_px		4_ground_force_py		4_ground_force_pz		4_ground_torque_x		4_ground_torque_y		4_ground_torque_z		
1.859500		2.471972		-13.477324		-13.185126		0.106685		0.000000		0.197719		-0.016813		0.091663		0.089676		-5.395610		-46.652745		-17.171454		-0.147397		0.000000		0.263441		0.142652		1.233434		0.453989		23.173050		2.079681		0.395948		0.376034		1.311059		1.913898		-0.085673		-0.007689		-0.001464		-19.452049		-0.373748		1.703924		-0.264748		1.309934		1.925192		0.028596		0.000549		-0.002505		
1.863162		6.494612		-47.202628		-40.518993		0.107999		0.000000		0.203344		-0.006242		0.045304		0.038909		-1.940399		-82.042306		-39.667493		-0.146605		0.000000		0.260621		0.040691		1.715850		0.829476		23.328012		2.147467		0.507469		0.376061		1.311015		1.913886		-0.089409		-0.008231		-0.001945		-19.343877		-0.244934		1.822427		-0.264774		1.309940		1.925183		0.030880		0.000391		-0.002909		
1.866823		8.573702		-68.497030		-57.130835		0.109374		0.000000		0.204787		0.008127		-0.064966		-0.054181		6.585106		-75.621179		-47.471678		-0.148315		0.000000		0.258706		-0.109063		1.256154		0.788131		23.331690		2.181117		0.594858		0.376086		1.310997		1.913898		-0.093847		-0.008773		-0.002393		-19.271847		-0.175102		1.924767		-0.264821		1.309944		1.925179		0.030613		0.000278		-0.003057		
1.870485		5.178913		-44.840523		-38.798777		0.114703		0.000000		0.204920		0.019924		-0.172522		-0.149293		18.763623		12.744129		-18.932829		-0.152278		0.000000		0.231299		-0.662046		-0.413883		0.629559		23.210696		2.183190		0.610090		0.376102		1.310994		1.913925		-0.097401		-0.009162		-0.002560		-19.283872		-0.176441		1.964873		-0.264878		1.309945		1.925183		0.028199		0.000258		-0.002873		
1.874146		-6.432889		56.513707		35.511075		0.093455		0.000000		0.209621		0.000685		-0.005902		-0.003521		30.209432		206.529488		62.196128		-0.138868		0.000000		0.252972		-0.660545		-4.511248		-1.357679		23.015852		2.168879		0.525738		0.376102		1.310993		1.913951		-0.099251		-0.009353		-0.002267		-19.376345		-0.231535		1.912720		-0.264935		1.309940		1.925194		0.024525		0.000293		-0.002421		
1.877808		-25.830789		249.511998		167.367986		0.101804		0.000000		0.209671		-0.060499		0.584569		0.392087		35.138270		489.894730		193.021652		-0.138770		0.000000		0.251251		-0.611650		-8.522883		-3.357684		22.794853		2.146918		0.358115		0.376087		1.310984		1.913961		-0.099531		-0.009374		-0.001564		-19.494619		-0.300398		1.775890		-0.264985		1.309931		1.925203		0.020595		0.000318		-0.001876		
1.881470		-48.224443		516.645097		328.865865		0.102596		0.000000		0.211161		-0.200244		2.145397		1.365587		30.084812		805.308916		345.557581		-0.137334		0.000000		0.248077		-0.424297		-11.355591		-4.872614		22.571048		2.105275		0.163488		0.376055		1.310965		1.913950		-0.098876		-0.009222		-0.000716		-19.566447		-0.336235		1.598194		-0.265026		1.309919		1.925202		0.017463		0.000300		-0.001426		
1.885131		-65.654651		810.690334		466.579160		0.102272		0.000000		0.213344		-0.421518		5.206163		2.995723		17.746608		1075.723885		473.695248		-0.134844		0.000000		0.243785		-0.186878		-11.313420		-4.981865		22.341774		2.020145		0.015525		0.376013		1.310941		1.913923		-0.097940		-0.008856		-0.000068		-19.549266		-0.304224		1.435168		-0.265059		1.309909		1.925189		0.016111		0.000251		-0.001183		
1.888793		-71.525701		1075.500521		526.680704		0.101595		0.000000		0.216245		-0.684955		10.303419		5.043927		7.652847		1246.464505		535.922463		-0.131454		0.000000		0.238792		-0.048348		-7.855089		-3.377884		22.105932		1.887047		-0.033525		0.375964		1.310916		1.913887		-0.097192		-0.008297		0.000147		-19.461432		-0.199498		1.325685		-0.265087		1.309902		1.925163		0.016894		0.000173		-0.001151		
1.892455		-65.738358		1273.550317		488.796828		0.101138		0.000000		0.219773		-0.905651		17.547643		6.733909		11.004336		1313.062315		519.545137		-0.127811		0.000000		0.234401		-0.017362		-2.081798		-0.824148		21.896629		1.741959		0.018275		0.375916		1.310893		1.913854		-0.096964		-0.007713		-0.000081		-19.368595		-0.048367		1.280380		-0.265110		1.309899		1.925130		0.019004		0.000048		-0.001256		
1.896116		-55.228273		1396.755802		382.862344		0.101345		0.000000		0.223516		-1.021137		25.830199		7.078106		33.474196		1315.129809		448.103729		-0.125408		0.000000		0.232836		0.094253		3.687582		1.255490		21.776327		1.649972		0.125396		0.375876		1.310868		1.913833		-0.097541		-0.007390		-0.000561		-19.339137		0.100154		1.291916		-0.265127		1.309896		1.925098		0.020634		-0.000107		-0.001379		
1.899778		-48.114204		1460.060520		274.196396		0.101997		0.000000		0.226839		-1.079906		32.772921		6.153289		70.602239		1306.601722		367.069482		-0.126172		0.000000		0.235885		0.370189		6.847822		1.923496		21.800612		1.666623		0.226377		0.375847		1.310838		1.913817		-0.099004		-0.007568		-0.001028		-19.402551		0.187108		1.345451		-0.265143		1.309893		1.925070		0.020143		-0.000194		-0.001397		
1.903439		-46.742613		1484.059022		221.038064		0.102143		0.000000		0.229023		-1.151943		36.573722		5.447290		109.366222		1321.815119		315.567322		-0.130707		0.000000		0.242669		0.459925		5.560869		1.327801		21.986497		1.799456		0.281165		0.375830		1.310800		1.913802		-0.100866		-0.008255		-0.001290		-19.541894		0.167334		1.422976		-0.265163		1.309887		1.925046		0.017320		-0.000149		-0.001261		
1.907101		-47.196690		1482.251448		240.633546		0.101078		0.000000		0.229529		-1.193457		37.481517		6.084902		134.614087		1361.493548		307.203911		-0.136764		0.000000		0.249769		-0.027582		-0.277388		-0.062618		22.295463		2.000810		0.290855		0.375818		1.310761		1.913782		-0.102006		-0.009154		-0.001330		-19.710802		0.036306		1.509371		-0.265190		1.309881		1.925024		0.013458		-0.000025		-0.001031		
1.910763		-44.462437		1458.511852		305.742674		0.098874		0.000000		0.228240		-1.132335		37.144464		7.786579		137.404663		1400.986263		329.455354		-0.140867		0.000000		0.254208		-0.825679		-8.421755		-1.981058		22.638716		2.195234		0.290678		0.375802		1.310733		1.913756		-0.101317		-0.009825		-0.001301		-19.853643		-0.155494		1.590581		-0.265232		1.309875		1.925001		0.010407		0.000081		-0.000834		
